<svg width="197" height="176" viewBox="0 0 197 176" fill="none" xmlns="http://www.w3.org/2000/svg">
<path d="M138.859 77.4728C140.036 77.4728 140.998 76.5276 140.998 75.3717V71.1707C140.998 70.0148 140.036 69.0696 138.859 69.0696C137.683 69.0696 136.721 70.0148 136.721 71.1707V75.3717C136.721 76.5276 137.683 77.4728 138.859 77.4728Z" fill="black"/>
<path d="M136.721 113.183C136.721 114.338 137.683 115.283 138.859 115.283C140.036 115.283 140.998 114.338 140.998 113.183V108.982C140.998 107.826 140.036 106.881 138.859 106.881C137.683 106.881 136.721 107.826 136.721 108.982V113.183Z" fill="black"/>
<path d="M162.383 92.177C162.383 91.0211 161.421 90.0759 160.244 90.0759H155.967C154.792 90.0759 153.828 91.0211 153.828 92.177C153.828 93.3317 154.792 94.2769 155.967 94.2769H160.244C161.421 94.2769 162.383 93.3317 162.383 92.177Z" fill="black"/>
<path d="M152.438 102.575C151.584 101.735 150.3 101.735 149.445 102.575C148.589 103.415 148.589 104.675 149.445 105.516L152.438 108.456C152.866 108.876 153.402 109.087 153.936 109.087C154.47 109.087 155.005 108.876 155.433 108.456C156.288 107.617 156.288 106.356 155.433 105.516L152.438 102.575Z" fill="black"/>
<path d="M152.438 75.7919L149.445 78.7322C148.589 79.5727 148.589 80.8333 149.445 81.6738C149.873 82.094 150.407 82.3035 150.941 82.3035C151.476 82.3035 152.011 82.094 152.438 81.6738L155.433 78.7322C156.288 77.893 156.288 76.6323 155.433 75.7919C154.577 74.9515 153.294 75.0562 152.438 75.7919Z" fill="black"/>
<path d="M136.721 92.1769C136.721 93.3317 137.683 94.2769 138.859 94.2769H147.414C148.589 94.2769 149.551 93.3317 149.551 92.1769C149.551 91.0211 148.589 90.0759 147.414 90.0759H140.998V83.7738C140.998 82.619 140.036 81.6738 138.859 81.6738C137.683 81.6738 136.721 82.619 136.721 83.7738V92.1769Z" fill="black"/>
<path d="M61.8732 55.4155C61.8732 53.1049 59.9487 51.2145 57.5964 51.2145H46.9039C44.5516 51.2145 42.6271 53.1049 42.6271 55.4155V65.9186C42.6271 68.2292 44.5516 70.1208 46.9039 70.1208H57.5964C59.9487 70.1208 61.8732 68.2292 61.8732 65.9186V55.4155ZM46.9039 65.9186V55.4155H55.3508L52.464 59.7224L51.3951 58.882C50.4329 58.1463 49.1495 58.357 48.4006 59.3022C47.6528 60.2474 47.8661 61.5081 48.8284 62.2426L51.7151 64.3437C52.0362 64.6591 52.5707 64.7639 52.9985 64.7639C53.1051 64.7639 53.213 64.7639 53.3196 64.7639C53.8541 64.6591 54.3885 64.3437 54.7097 63.8187L57.4898 59.6177V65.8138H46.9039V65.9186Z" fill="black"/>
<path d="M61.8732 78.5228C61.8732 76.2122 59.9487 74.3218 57.5964 74.3218H46.9039C44.5516 74.3218 42.6271 76.2122 42.6271 78.5228V89.0259C42.6271 91.3365 44.5516 93.2269 46.9039 93.2269H57.5964C59.9487 93.2269 61.8732 91.3365 61.8732 89.0259V78.5228ZM46.9039 89.0259V78.5228H55.3508L52.464 82.8286L51.3951 81.9893C50.4329 81.2536 49.1495 81.4632 48.4006 82.4084C47.6528 83.3547 47.8661 84.6142 48.8284 85.3499L51.7151 87.4498C52.0362 87.7653 52.5707 87.87 52.9985 87.87C53.1051 87.87 53.213 87.87 53.3196 87.87C53.8541 87.7653 54.3885 87.4498 54.7097 86.9248L57.4898 82.7238V88.9212H46.9039V89.0259Z" fill="black"/>
<path d="M57.5964 97.4279H46.9039C44.5516 97.4279 42.6271 99.3183 42.6271 101.629V112.132C42.6271 114.443 44.5516 116.334 46.9039 116.334H57.5964C59.9487 116.334 61.8732 114.443 61.8732 112.132V101.629C61.8732 99.3183 59.9487 97.4279 57.5964 97.4279ZM46.9039 112.132V101.629H55.3508L52.464 105.936L51.3951 105.095C50.4329 104.36 49.1495 104.57 48.4006 105.516C47.6528 106.461 47.8661 107.721 48.8284 108.456L51.7151 110.557C52.0362 110.873 52.5707 110.977 52.9985 110.977C53.1051 110.977 53.213 110.977 53.3196 110.977C53.8541 110.873 54.3885 110.557 54.7097 110.032L57.4898 105.831V112.027H46.9039V112.132Z" fill="black"/>
<path d="M66.15 111.082C66.15 112.238 67.1122 113.183 68.2889 113.183H80.3715L79.7292 108.982H68.2889C67.1122 108.982 66.15 109.927 66.15 111.082Z" fill="black"/>
<path d="M77.1637 100.579H68.2889C67.1122 100.579 66.15 101.524 66.15 102.68C66.15 103.835 67.1122 104.78 68.2889 104.78H79.0881L78.6604 102.155L77.1637 100.579Z" fill="black"/>
<path d="M68.2889 90.0758H71.8168L72.5657 85.8748H68.2889C67.1122 85.8748 66.15 86.82 66.15 87.9758C66.15 89.1306 67.1122 90.0758 68.2889 90.0758Z" fill="black"/>
<path d="M68.2889 81.6738H73.2068L73.9558 77.4728H68.2889C67.1122 77.4728 66.15 78.418 66.15 79.5727C66.15 80.7286 67.1122 81.6738 68.2889 81.6738Z" fill="black"/>
<path d="M68.2889 62.7687C67.1122 62.7687 66.15 63.7139 66.15 64.8686C66.15 66.0245 67.1122 66.9697 68.2889 66.9697H75.667L76.4147 62.7687H68.2889Z" fill="black"/>
<path d="M77.8048 54.3655H68.2889C67.1122 54.3655 66.15 55.3107 66.15 56.4666C66.15 57.6213 67.1122 58.5665 68.2889 58.5665H77.057L77.8048 54.3655Z" fill="black"/>
<mask id="mask0_117_266" style="mask-type:luminance" maskUnits="userSpaceOnUse" x="123" y="43" width="49" height="82">
<path d="M123.5 43.8519H171.043V124.012H123.5V43.8519Z" fill="white"/>
</mask>
<g mask="url(#mask0_117_266)">
<path d="M145.275 61.2974V56.4666H147.414C148.589 56.4666 149.551 55.5214 149.551 54.3655V45.9635C149.551 44.8076 148.589 43.8624 147.414 43.8624H130.305C129.129 43.8624 128.166 44.8076 128.166 45.9635V54.3655C128.166 55.5214 129.129 56.4666 130.305 56.4666H132.444V61.2974C131.161 61.6129 129.771 61.9283 128.594 62.3485L129.343 66.5495C132.336 65.4996 135.544 64.8687 138.967 64.8687C154.256 64.8687 166.766 77.1574 166.766 92.177C166.766 107.197 154.256 119.484 138.967 119.484C133.62 119.484 128.702 118.014 124.424 115.494L123.783 120.01C128.274 122.426 133.513 123.791 138.967 123.791C156.608 123.791 171.043 109.612 171.043 92.2818C170.936 76.9479 159.924 64.2389 145.275 61.2974ZM132.444 48.0634H145.275V52.2656H132.444V48.0634ZM140.998 60.7724C140.249 60.7724 139.608 60.6677 138.859 60.6677C138.111 60.6677 137.469 60.6677 136.721 60.7724V56.4666H140.998V60.7724Z" fill="black"/>
</g>
<path d="M126.456 101.944L126.242 102.155L125.386 108.351L128.274 105.516C129.129 104.675 129.129 103.415 128.274 102.575C127.739 102.049 127.097 101.944 126.456 101.944Z" fill="black"/>
<mask id="mask1_117_266" style="mask-type:luminance" maskUnits="userSpaceOnUse" x="33" y="31" width="47" height="106">
<path d="M33 31H80V136.49H33V31Z" fill="white"/>
</mask>
<g mask="url(#mask1_117_266)">
<path d="M38.9242 132.05C37.8388 132.05 36.9502 131.105 36.9502 129.949V37.5221C36.9502 36.3674 37.8388 35.4222 38.9242 35.4222H79.8982C79.7998 34.7913 79.7013 34.1616 79.6028 33.427C79.5043 32.6914 79.5043 31.9557 79.4047 31.2212H38.9242C35.6667 31.2212 33 34.0568 33 37.5221V129.949C33 133.416 35.6667 136.251 38.9242 136.251H78.8128L78.2208 132.05H38.9242Z" fill="black"/>
</g>
<mask id="mask2_117_266" style="mask-type:luminance" maskUnits="userSpaceOnUse" x="75" y="48" width="55" height="104">
<path d="M75.5674 48.0239H129.264V151.046H75.5674V48.0239Z" fill="white"/>
</mask>
<g mask="url(#mask2_117_266)">
<path d="M129.236 91.8616L122.393 51.1098C122.286 50.2693 121.644 49.6396 120.789 49.4289L116.511 48.3789C115.657 49.7444 114.694 51.005 113.625 52.055L118.437 53.2109L124.96 91.5461L121.431 95.1174L117.26 71.9065C117.047 70.7506 115.977 70.0149 114.801 70.2256C113.625 70.4351 112.877 71.4863 113.09 72.641L118.009 99.7386C118.009 99.8446 118.116 100.054 118.116 100.159L111.166 146.793H104.643V117.489C104.643 116.334 103.681 115.389 102.504 115.389C101.329 115.389 100.367 116.334 100.367 117.489V146.793H93.8441L86.8939 99.3184L91.8118 72.5362C92.0263 71.3803 91.2774 70.3304 90.1018 70.1208C88.9251 69.9102 87.8562 70.6458 87.6417 71.8006L83.4715 94.8031L80.2648 91.4414L86.7873 53.1049L91.5985 51.9502C90.5296 50.9002 89.5674 49.7444 88.7118 48.2742L84.435 49.3241C83.5794 49.5348 82.9371 50.1646 82.8304 51.005L75.7736 91.8616C75.6669 92.4913 75.8802 93.227 76.308 93.6472L82.7238 100.264L89.8873 149.208C89.994 150.259 90.9574 150.994 92.0263 150.994H112.984C114.052 150.994 114.908 150.259 115.121 149.208L122.286 100.264L128.702 93.6472C129.128 93.227 129.343 92.4913 129.236 91.8616Z" fill="black"/>
</g>
<mask id="mask3_117_266" style="mask-type:luminance" maskUnits="userSpaceOnUse" x="88" y="16" width="29" height="37">
<path d="M88.3089 16.5016H116.522V52.4937H88.3089V16.5016Z" fill="white"/>
</mask>
<g mask="url(#mask3_117_266)">
<path d="M89.3529 36.7209C90.1018 42.7076 92.133 50.7941 101.435 52.1595C101.863 52.2655 102.184 52.2655 102.504 52.2655C102.932 52.2655 103.253 52.2655 103.681 52.1595C112.877 50.6894 114.908 42.7076 115.657 36.7209C115.764 36.09 115.87 35.4603 115.87 34.9353C116.405 30.9438 117.154 26.3226 113.946 22.3311C111.272 18.9705 107.958 17.0801 104.002 16.6599C103.147 16.5551 101.542 16.5551 100.687 16.6599C96.8376 17.0801 93.523 18.9705 90.8496 22.3311C87.7496 26.3226 88.3907 30.9438 88.9251 34.9353C89.1396 35.4603 89.2462 36.09 89.3529 36.7209ZM94.3786 24.8524C96.3031 22.4358 98.5488 21.0704 101.222 20.8609C101.542 20.8609 101.97 20.8609 102.504 20.8609C102.932 20.8609 103.36 20.8609 103.681 20.8609C106.461 21.1763 108.707 22.4358 110.631 24.8524C112.662 27.4773 112.235 30.6283 111.7 34.3044C111.594 34.9353 111.487 35.565 111.487 36.1948C110.417 43.8623 108.065 47.224 103.039 48.0633C102.612 48.1692 102.398 48.1692 102.077 48.0633C97.0521 47.3288 94.5919 43.7575 93.6297 36.1948C93.523 35.565 93.4164 34.9353 93.4164 34.3044C92.7741 30.6283 92.3475 27.4773 94.3786 24.8524Z" fill="black"/>
</g>
</svg>
