<svg width="197" height="176" viewBox="0 0 197 176" fill="none" xmlns="http://www.w3.org/2000/svg">
<rect width="197" height="176" fill="white"/>
<g filter="url(#filter0_d_180_6)">
<path d="M124.271 107.6C123.92 107.6 123.587 107.378 123.477 107.016C123.346 106.573 123.286 106.109 123.286 105.586V85.2398C123.286 84.1312 123.659 83.7386 124.312 83.4164C124.503 83.3261 124.664 83.2547 124.876 83.0437C125.932 82.0066 127.29 81.4418 128.729 81.4418C130.813 81.4418 132.684 82.6605 133.6 84.4336C133.942 84.5344 134.194 84.8672 134.194 85.2398V105.586C134.194 105.727 134.194 105.858 134.163 105.988C134.183 106.13 134.143 106.391 134.082 106.632C133.962 107.066 133.509 107.327 133.077 107.207C132.634 107.086 132.373 106.632 132.493 106.2C132.513 106.109 132.523 105.978 132.523 105.837L132.543 105.586V86.5793C132.533 86.5183 132.523 86.4679 132.523 86.4176C132.332 84.5847 130.662 83.0941 128.729 83.0941C127.733 83.0941 126.777 83.4867 126.043 84.2121C125.64 84.6152 125.278 84.7957 125.037 84.907C124.956 84.8965 124.936 84.9773 124.936 85.2398V105.586C124.936 105.937 124.976 106.25 125.057 106.532C125.197 106.976 124.946 107.428 124.513 107.57C124.433 107.59 124.352 107.6 124.271 107.6Z" fill="black"/>
<path d="M133.861 107.056C133.661 106.422 133.731 105.747 134.032 105.163L134.183 104.881V74.0286C134.183 73.0313 134.576 72.0751 135.3 71.3497C136.035 70.6243 136.991 70.2317 137.997 70.2317C139.727 70.2317 141.278 71.4399 141.69 73.1228C141.77 73.4251 141.811 73.7169 141.811 74.0286V90.306L142.686 88.6337C142.908 88.2106 143.169 87.838 143.461 87.4759V74.0286C143.461 73.5657 143.4 73.1321 143.29 72.7091C142.696 70.322 140.473 68.5806 137.997 68.5806C136.557 68.5806 135.19 69.1442 134.143 70.172C133.097 71.2185 132.523 72.5884 132.523 74.0286L132.533 105.898C132.553 106.15 132.573 106.402 132.643 106.633C132.735 106.996 133.077 107.237 133.439 107.237C133.509 107.237 133.58 107.228 133.65 107.207C133.74 107.187 133.811 107.136 133.881 107.097C133.881 107.077 133.872 107.066 133.861 107.056Z" fill="black"/>
<path d="M142.686 88.6336C142.867 88.2809 143.079 87.9586 143.31 87.6563V66.6457C143.31 64.5516 145.01 62.8383 147.123 62.8383C149.216 62.8383 150.927 64.5516 150.927 66.6457V85.0981C151.379 85.2293 151.822 85.391 152.255 85.6125C152.366 85.6723 152.467 85.7532 152.577 85.8141V66.6457C152.577 63.634 150.132 61.1871 147.114 61.1871C144.104 61.1871 141.66 63.634 141.66 66.6457V90.5977L142.686 88.6336Z" fill="black"/>
<path d="M143.672 112.928C143.542 112.928 143.411 112.897 143.29 112.827C142.887 112.616 142.737 112.123 142.948 111.72L152.355 93.6996C153.211 92.0578 152.728 89.9836 151.249 88.875C151.098 88.7543 150.937 88.6535 150.746 88.5528C148.823 87.566 146.539 88.3817 145.614 90.1653L136.961 106.693C136.75 107.097 136.246 107.257 135.844 107.046C135.441 106.834 135.28 106.331 135.491 105.928L144.145 89.3989C145.091 87.586 146.943 86.4586 148.985 86.4586C149.841 86.4586 150.705 86.6801 151.501 87.0832C151.772 87.2239 152.004 87.375 152.245 87.5555C154.369 89.1469 155.043 92.1188 153.814 94.466L144.407 112.485C144.255 112.767 143.974 112.928 143.672 112.928Z" fill="black"/>
<mask id="mask0_180_6" style="mask-type:luminance" maskUnits="userSpaceOnUse" x="105" y="68" width="57" height="85">
<path d="M105.3 68.5535H162V152.925H105.3V68.5535Z" fill="white"/>
</mask>
<g mask="url(#mask0_180_6)">
<path d="M156.37 68.5804C153.373 68.5804 150.927 71.0273 150.927 74.0285V85.098C151.379 85.2293 151.822 85.391 152.255 85.6125C152.366 85.6722 152.467 85.7531 152.577 85.814V74.0285C152.577 71.9344 154.277 70.2316 156.391 70.2316C158.484 70.2316 160.185 71.9344 160.185 74.0285V88.7847C160.185 92.0683 159.369 95.3414 157.829 98.2523L146.932 118.78C145.705 121.097 143.913 123.121 141.761 124.632L128.257 134.07C128.036 134.221 127.904 134.473 127.904 134.745V151.273H107.166V123.997C107.166 122.174 107.679 120.391 108.655 118.841C110.195 116.413 112.147 114.227 114.431 112.364C116.735 110.541 119.271 109.111 121.998 108.103C122.712 107.842 123.326 107.62 124.111 107.6C124.504 107.6 124.644 107.579 124.826 107.55C125.037 107.52 125.318 107.469 126.727 107.469L133.288 107.237C133.297 107.237 133.459 107.237 133.468 107.237L133.952 107.217C133.931 107.156 133.881 107.116 133.861 107.055C133.711 106.562 133.72 106.049 133.871 105.575L133.439 105.586C133.429 105.586 133.268 105.586 133.257 105.586L126.697 105.817C125.188 105.817 124.835 105.878 124.563 105.918C124.453 105.937 124.363 105.948 124.091 105.948C123.014 105.968 122.209 106.27 121.414 106.562C118.536 107.62 115.84 109.131 113.394 111.075C110.959 113.059 108.896 115.376 107.257 117.954C106.119 119.777 105.516 121.862 105.516 123.997V152.099C105.516 152.552 105.888 152.925 106.341 152.925H128.729C129.183 152.925 129.554 152.552 129.554 152.099V135.178L142.706 125.981C145.071 124.33 147.043 122.103 148.391 119.556L159.288 99.0281C160.959 95.8863 161.835 92.3402 161.835 88.7847V74.0285C161.835 71.0273 159.389 68.5804 156.37 68.5804Z" fill="black"/>
</g>
<path d="M73.5773 107.6C73.9301 107.6 74.2617 107.378 74.373 107.016C74.5031 106.573 74.5641 106.109 74.5641 105.586V85.2398C74.5641 84.1312 74.1914 83.7386 73.5375 83.4164C73.3465 83.3261 73.1859 83.2547 72.9738 83.0437C71.918 82.0066 70.5586 81.4418 69.1207 81.4418C67.0371 81.4418 65.1656 82.6605 64.2504 84.4336C63.9082 84.5344 63.6562 84.8672 63.6562 85.2398V105.586C63.6562 105.727 63.6563 105.858 63.6867 105.988C63.6668 106.13 63.7066 106.391 63.7676 106.632C63.8883 107.066 64.3406 107.327 64.773 107.207C65.216 107.086 65.4773 106.632 65.3566 106.2C65.3367 106.109 65.3262 105.978 65.3262 105.837L65.3063 105.586V86.5793C65.3168 86.5183 65.3262 86.4679 65.3262 86.4176C65.5184 84.5847 67.1883 83.0941 69.1207 83.0941C70.1168 83.0941 71.0719 83.4867 71.8066 84.2121C72.2098 84.6152 72.5719 84.7957 72.8133 84.907C72.893 84.8965 72.9141 84.9773 72.9141 85.2398V105.586C72.9141 105.937 72.873 106.25 72.7934 106.532C72.6516 106.976 72.9035 107.428 73.3359 107.57C73.4168 107.59 73.4977 107.6 73.5773 107.6Z" fill="black"/>
<path d="M63.9879 107.056C64.1894 106.422 64.1191 105.747 63.8168 105.163L63.6668 104.881V74.0286C63.6668 73.0313 63.2742 72.0751 62.55 71.3497C61.8152 70.6243 60.859 70.2317 59.8523 70.2317C58.1215 70.2317 56.5722 71.4399 56.1597 73.1228C56.0789 73.4251 56.039 73.7169 56.039 74.0286V90.306L55.1636 88.6337C54.9422 88.2106 54.6808 87.838 54.389 87.4759V74.0286C54.389 73.5657 54.4488 73.1321 54.5601 72.7091C55.1531 70.322 57.3773 68.5806 59.8523 68.5806C61.2914 68.5806 62.6601 69.1442 63.7066 70.172C64.7531 71.2185 65.3261 72.5884 65.3261 74.0286L65.3168 105.898C65.2969 106.15 65.2758 106.402 65.2054 106.633C65.1152 106.996 64.773 107.237 64.4109 107.237C64.3406 107.237 64.2703 107.228 64.2 107.207C64.1086 107.187 64.0383 107.136 63.9679 107.097C63.9679 107.077 63.9785 107.066 63.9879 107.056Z" fill="black"/>
<path d="M55.1636 88.6336C54.982 88.2809 54.7711 87.9586 54.5402 87.6563V66.6457C54.5402 64.5516 52.8398 62.8383 50.7258 62.8383C48.6328 62.8383 46.923 64.5516 46.923 66.6457V85.0981C46.4695 85.2293 46.0265 85.391 45.5941 85.6125C45.484 85.6723 45.3832 85.7532 45.2719 85.8141V66.6457C45.2719 63.634 47.7176 61.1871 50.7363 61.1871C53.7445 61.1871 56.1902 63.634 56.1902 66.6457V90.5977L55.1636 88.6336Z" fill="black"/>
<path d="M54.1781 112.928C54.3081 112.928 54.4394 112.897 54.5601 112.827C54.962 112.616 55.1132 112.123 54.9023 111.72L45.4933 93.6996C44.639 92.0578 45.1218 89.9836 46.6007 88.875C46.7519 88.7543 46.9124 88.6535 47.1034 88.5528C49.0253 87.566 51.3093 88.3817 52.2351 90.1653L60.8894 106.693C61.1003 107.097 61.6031 107.257 62.0062 107.046C62.4081 106.834 62.5699 106.331 62.3577 105.928L53.7046 89.3989C52.7589 87.586 50.9074 86.4586 48.8648 86.4586C48.0093 86.4586 47.1445 86.6801 46.3488 87.0832C46.0769 87.2239 45.846 87.375 45.6046 87.5555C43.4812 89.1469 42.8074 92.1188 44.0343 94.466L53.4433 112.485C53.5945 112.767 53.8757 112.928 54.1781 112.928Z" fill="black"/>
<mask id="mask1_180_6" style="mask-type:luminance" maskUnits="userSpaceOnUse" x="36" y="68" width="57" height="85">
<path d="M36 68.5535H92.4V152.925H36V68.5535Z" fill="white"/>
</mask>
<g mask="url(#mask1_180_6)">
<path d="M41.4785 68.5804C44.4774 68.5804 46.9231 71.0273 46.9231 74.0285V85.098C46.4696 85.2293 46.0266 85.391 45.5942 85.6125C45.484 85.6722 45.3832 85.7531 45.2719 85.814V74.0285C45.2719 71.9344 43.5715 70.2316 41.4586 70.2316C39.3656 70.2316 37.6653 71.9344 37.6653 74.0285V88.7847C37.6653 92.0683 38.4809 95.3414 40.0196 98.2523L50.918 118.78C52.1449 121.097 53.9356 123.121 56.0895 124.632L69.593 134.07C69.8145 134.221 69.9457 134.473 69.9457 134.745V151.273H90.6832V123.997C90.6832 122.174 90.1711 120.391 89.1949 118.841C87.6551 116.413 85.7028 114.227 83.4188 112.364C81.1149 110.541 78.5789 109.111 75.852 108.103C75.1371 107.842 74.5242 107.62 73.7391 107.6C73.3465 107.6 73.2059 107.579 73.0242 107.55C72.8133 107.52 72.5309 107.469 71.1223 107.469L64.5621 107.237C64.5516 107.237 64.391 107.237 64.3805 107.237L63.8977 107.217C63.9176 107.156 63.968 107.116 63.9879 107.055C64.1391 106.562 64.1297 106.049 63.9785 105.575L64.411 105.586C64.4215 105.586 64.5821 105.586 64.5926 105.586L71.1528 105.817C72.6621 105.817 73.0149 105.878 73.2856 105.918C73.3969 105.937 73.4871 105.948 73.759 105.948C74.836 105.968 75.641 106.27 76.4356 106.562C79.3137 107.62 82.0102 109.131 84.4547 111.075C86.8899 113.059 88.9535 115.376 90.593 117.954C91.7297 119.777 92.3344 121.862 92.3344 123.997V152.099C92.3344 152.552 91.9617 152.925 91.5094 152.925H69.1207C68.6672 152.925 68.2946 152.552 68.2946 152.099V135.178L55.1438 125.981C52.7789 124.33 50.8067 122.103 49.4578 119.556L38.5606 99.0281C36.8906 95.8863 36.0153 92.3402 36.0153 88.7847V74.0285C36.0153 71.0273 38.4598 68.5804 41.4785 68.5804Z" fill="black"/>
</g>
<path d="M69.3012 60.3609C69.0492 60.3609 68.7985 60.2496 68.6367 60.0281L54.7407 41.0121C54.47 40.65 54.5496 40.1355 54.9223 39.8637C55.2844 39.5918 55.8082 39.6726 56.0696 40.0348L69.9657 59.0519C70.2375 59.4141 70.1567 59.9379 69.7946 60.1992C69.6434 60.3105 69.4723 60.3609 69.3012 60.3609Z" fill="black"/>
<path d="M80.9637 50.8629C80.591 50.8629 80.2594 50.6109 80.1692 50.2277L76.0324 33.2871C75.9328 32.843 76.2035 32.4 76.6465 32.2898C77.0895 32.1785 77.5324 32.4504 77.6426 32.8934L81.7688 49.8352C81.8789 50.2781 81.6071 50.7316 81.1653 50.8324C81.0949 50.8523 81.034 50.8629 80.9637 50.8629Z" fill="black"/>
<path d="M132.261 60.3609C132.09 60.3609 131.919 60.3105 131.778 60.1992C131.406 59.9379 131.326 59.4141 131.597 59.0519L145.493 40.0348C145.765 39.6726 146.278 39.5918 146.651 39.8637C147.013 40.1355 147.094 40.65 146.822 41.0121L132.926 60.0281C132.764 60.2496 132.513 60.3609 132.261 60.3609Z" fill="black"/>
<path d="M120.599 50.8629C120.529 50.8629 120.469 50.8523 120.398 50.8324C119.956 50.7316 119.684 50.2781 119.794 49.8352L123.92 32.8934C124.03 32.4504 124.484 32.1785 124.925 32.2898C125.368 32.4 125.64 32.843 125.53 33.2871L121.404 50.2277C121.314 50.6109 120.972 50.8629 120.599 50.8629Z" fill="black"/>
<mask id="mask2_180_6" style="mask-type:luminance" maskUnits="userSpaceOnUse" x="99" y="24" width="3" height="28">
<path d="M99.9 24H101.7V51.1535H99.9V24Z" fill="white"/>
</mask>
<g mask="url(#mask2_180_6)">
<path d="M100.786 50.8629C100.323 50.8629 99.9609 50.4902 99.9609 50.0367V24.8262C99.9609 24.3727 100.323 24 100.786 24C101.239 24 101.611 24.3727 101.611 24.8262V50.0367C101.611 50.4902 101.239 50.8629 100.786 50.8629Z" fill="black"/>
</g>
</g>
<defs>
<filter id="filter0_d_180_6" x="32.0153" y="24" width="133.819" height="136.925" filterUnits="userSpaceOnUse" color-interpolation-filters="sRGB">
<feFlood flood-opacity="0" result="BackgroundImageFix"/>
<feColorMatrix in="SourceAlpha" type="matrix" values="0 0 0 0 0 0 0 0 0 0 0 0 0 0 0 0 0 0 127 0" result="hardAlpha"/>
<feOffset dy="4"/>
<feGaussianBlur stdDeviation="2"/>
<feComposite in2="hardAlpha" operator="out"/>
<feColorMatrix type="matrix" values="0 0 0 0 0 0 0 0 0 0 0 0 0 0 0 0 0 0 0.25 0"/>
<feBlend mode="normal" in2="BackgroundImageFix" result="effect1_dropShadow_180_6"/>
<feBlend mode="normal" in="SourceGraphic" in2="effect1_dropShadow_180_6" result="shape"/>
</filter>
</defs>
</svg>
