<svg width="197" height="176" viewBox="0 0 197 176" fill="none" xmlns="http://www.w3.org/2000/svg">
<rect width="197" height="176" fill="white"/>
<path d="M155.6 87.4815C155.6 87.459 155.577 87.4366 155.577 87.4141L137.023 43.04L119.121 50.5143C119.345 48.405 119.345 45.4201 118.2 43.2645C118.021 42.9291 117.821 42.6049 117.604 42.292C117.386 41.9791 117.151 41.6801 116.899 41.3939C116.647 41.109 116.379 40.8395 116.094 40.5855C115.81 40.3301 115.513 40.0929 115.201 39.874C114.89 39.6537 114.567 39.453 114.232 39.2706C113.898 39.0881 113.554 38.9267 113.2 38.7836C112.846 38.6419 112.486 38.5198 112.117 38.4201C111.749 38.3191 111.377 38.2405 111.001 38.183C110.624 38.1268 110.245 38.0918 109.863 38.0777C109.483 38.0651 109.102 38.0735 108.722 38.1044C108.342 38.1353 107.966 38.1886 107.591 38.263C107.218 38.3387 106.85 38.4342 106.486 38.5521C106.124 38.6699 105.769 38.8075 105.423 38.966C105.076 39.1246 104.741 39.3028 104.414 39.5007C104.088 39.6986 103.775 39.9147 103.475 40.1491C103.173 40.382 102.887 40.6332 102.616 40.8999C102.344 41.1679 102.088 41.45 101.85 41.7475C101.611 42.0436 101.391 42.3537 101.187 42.6765C100.985 42.9993 100.801 43.3319 100.637 43.6757C100.473 44.0195 100.33 44.3718 100.206 44.7324C100.084 45.0931 99.9819 45.4594 99.9019 45.8313C99.8205 46.2046 99.7629 46.5807 99.7251 46.9596C99.6886 47.3385 99.6745 47.7188 99.6816 48.0991C99.6886 48.4808 99.718 48.8597 99.77 49.2372C99.8219 49.6147 99.8949 49.988 99.9889 50.3557C100.084 50.7248 100.201 51.0868 100.337 51.4433C100.474 51.7983 100.632 52.145 100.808 52.4818C100.987 52.82 101.183 53.1456 101.398 53.4599C101.613 53.7743 101.846 54.0746 102.095 54.3623C102.347 54.65 102.612 54.9222 102.894 55.179C103.176 55.4344 103.471 55.6744 103.781 55.8961C104.091 56.1193 104.412 56.3228 104.745 56.508L85.6073 64.4749C85.1737 63.1164 84.5379 61.859 83.6987 60.704C83.9401 60.5721 84.1562 60.4079 84.3499 60.2115C84.5899 59.9771 84.7751 59.7077 84.9084 59.4003C85.0403 59.093 85.1091 58.7716 85.1133 58.4376L85.0235 51.0307H86.5504C86.9208 51.0251 87.2352 50.8918 87.4948 50.6265C87.7699 50.3641 87.9046 50.0427 87.899 49.661L87.6295 30L84.9337 30.0449L85.1807 48.3377L49.1734 48.6071L48.9264 30L46.2305 30.0449L46.4775 49.9978C46.4831 50.1747 46.5196 50.3431 46.5898 50.5044C46.6613 50.6658 46.7582 50.809 46.8845 50.9325C47.0094 51.056 47.1539 51.1514 47.3167 51.2188C47.4795 51.2861 47.6493 51.3212 47.8261 51.3226H49.3979C49.3979 51.39 49.4877 58.7295 49.4877 58.7295C49.5003 59.1323 49.6014 59.5098 49.7908 59.8648C49.9803 60.2199 50.2385 60.5146 50.5655 60.7489L49.5775 62.3207C49.1958 62.927 48.6794 64.4299 48.6794 64.4299H48.6569L44.7261 79.0866L45.759 82.275L44.2995 82.9248C43.6203 83.2237 43.0267 83.6419 42.5158 84.1794C42.0064 84.7155 41.6191 85.3301 41.3567 86.0234C41.097 86.7152 40.9792 87.4296 41.003 88.1677C41.0255 88.9073 41.1883 89.6132 41.4914 90.2868L61.4597 134.863L80.1721 126.492C80.3377 126.42 80.4921 126.328 80.6338 126.216C80.7755 126.102 80.899 125.973 81.0057 125.827C81.1123 125.681 81.1979 125.522 81.2625 125.354C81.3271 125.184 81.3678 125.01 81.3846 124.829C81.4014 124.649 81.3944 124.47 81.3635 124.292C81.3327 124.113 81.2793 123.942 81.2022 123.778C81.125 123.615 81.0267 123.464 80.9103 123.326C80.7924 123.188 80.6577 123.069 80.5089 122.968C78.105 121.284 76.4434 119.467 75.948 117.985C75.8554 117.708 75.7782 117.426 75.7192 117.14C75.6603 116.854 75.6182 116.566 75.5943 116.274C75.5705 115.984 75.5649 115.692 75.5775 115.4C75.5901 115.108 75.6196 114.817 75.6673 114.53C75.715 114.241 75.7796 113.957 75.8624 113.677C75.9452 113.396 76.0448 113.122 76.1613 112.854C76.2778 112.586 76.4097 112.325 76.5585 112.074C76.7072 111.821 76.87 111.58 77.0482 111.348C77.2264 111.117 77.4173 110.896 77.6222 110.689C77.8271 110.48 78.0446 110.285 78.2734 110.104C78.5035 109.921 78.7421 109.754 78.9919 109.603C79.2417 109.45 79.4985 109.313 79.7651 109.193C80.0318 109.072 80.304 108.968 80.5833 108.88C80.8625 108.793 81.146 108.723 81.4337 108.671C81.7214 108.619 82.0119 108.584 82.3038 108.567C82.5957 108.55 82.8876 108.551 83.1795 108.57C83.47 108.588 83.7605 108.626 84.0482 108.679C84.3344 108.734 84.6179 108.805 84.8958 108.895C85.1751 108.984 85.4473 109.09 85.7125 109.212C85.9778 109.335 86.2346 109.473 86.483 109.626C86.7314 109.781 86.9699 109.949 87.1973 110.133C87.426 110.315 87.6408 110.512 87.8456 110.722C88.0491 110.932 88.2386 111.153 88.4154 111.386C88.5922 111.619 88.7536 111.862 88.8996 112.115C89.0469 112.367 89.1774 112.628 89.2911 112.898C89.4062 113.166 89.5044 113.441 89.5844 113.721C89.6658 114.004 89.7289 114.287 89.7753 114.576C89.8202 114.865 89.8482 115.156 89.8595 115.448C89.8693 115.739 89.8609 116.031 89.8356 116.322C89.8103 116.612 89.7668 116.901 89.7051 117.188C89.6447 117.473 89.5662 117.753 89.4707 118.03C89.3753 118.306 89.263 118.576 89.1339 118.838C89.0497 119.011 88.9936 119.193 88.9655 119.384C88.9361 119.573 88.9375 119.764 88.9669 119.955C88.9978 120.145 89.0553 120.327 89.1409 120.5C89.2251 120.672 89.3346 120.828 89.4679 120.967C89.6012 121.106 89.7528 121.222 89.9212 121.316C90.0896 121.409 90.2692 121.475 90.4587 121.513C90.6467 121.551 90.8376 121.561 91.0285 121.541C91.2207 121.521 91.406 121.472 91.5828 121.396L107.126 114.439C107.886 114.11 108.492 113.602 108.947 112.912L111.304 111.948C111.439 113.059 111.713 114.135 112.124 115.177C112.533 116.219 113.07 117.192 113.731 118.097C113.488 118.237 113.27 118.41 113.079 118.614C112.834 118.848 112.646 119.122 112.512 119.433C112.381 119.745 112.315 120.07 112.315 120.408L112.427 127.793H110.9C110.53 127.799 110.215 127.933 109.957 128.197C109.824 128.322 109.724 128.468 109.657 128.636C109.589 128.806 109.563 128.982 109.575 129.163L109.822 146.108H112.518L112.27 130.51L148.277 130.218L148.525 146.131H151.22L150.973 128.871C150.969 128.694 150.932 128.524 150.862 128.36C150.792 128.197 150.694 128.054 150.569 127.928C150.444 127.803 150.299 127.704 150.136 127.636C149.972 127.566 149.802 127.528 149.626 127.523H148.052C148.052 127.479 148.075 127.411 148.075 127.366L147.963 120.139C147.963 119.735 147.867 119.353 147.676 118.995C147.485 118.637 147.222 118.346 146.885 118.12C147.401 117.289 147.805 116.66 147.873 116.525C148.264 115.929 148.548 115.286 148.727 114.596L148.772 114.439H148.795L152.726 99.7594L151.287 95.2252L152.591 94.6863C152.926 94.5502 153.246 94.3804 153.548 94.1811C153.851 93.9804 154.132 93.7531 154.39 93.4977C154.647 93.2423 154.877 92.9644 155.08 92.6627C155.283 92.3624 155.454 92.0438 155.594 91.7098C155.733 91.3744 155.84 91.0292 155.911 90.6741C155.983 90.3177 156.019 89.9584 156.019 89.5963C156.019 89.2329 155.984 88.8736 155.914 88.5186C155.844 88.1621 155.739 87.8169 155.6 87.4815ZM51.3303 64.9015C51.4468 64.4959 51.6194 64.1142 51.8467 63.7577C51.8467 63.7577 52.5428 62.6351 53.3287 61.4226L80.6436 61.198C81.2274 61.8169 81.7298 62.4961 82.1508 63.2371C82.5732 63.9767 82.9016 64.7555 83.136 65.5751L61.4822 75.2484L61.2577 75.6301C59.7308 78.3246 56.9676 79.5132 56.9451 79.5132L55.9572 79.9174C55.9572 79.9174 57.5065 89.2778 57.9331 91.9933C58.0594 92.8002 58.0496 93.6071 57.9036 94.4113C57.7577 95.2154 57.4826 95.9732 57.0799 96.6847C56.9367 96.8882 56.7725 97.0734 56.5859 97.2376C56.3978 97.4018 56.1943 97.5421 55.9726 97.6572C55.7523 97.7723 55.5207 97.8593 55.2794 97.9182C55.0366 97.9786 54.791 98.0081 54.5412 98.0081C53.8451 97.9856 53.5532 97.6263 53.441 97.4257L49.0611 83.7556L48.2303 81.1748L47.5328 79.0192L51.3303 64.9015ZM106.632 111.499C106.479 111.719 106.277 111.876 106.026 111.97L92.2564 118.142C92.349 117.773 92.4192 117.4 92.4683 117.022C92.5174 116.646 92.5441 116.267 92.5497 115.887C92.5553 115.507 92.5385 115.126 92.4992 114.749C92.4599 114.37 92.3995 113.995 92.3167 113.623C92.2339 113.253 92.1301 112.886 92.0052 112.527C91.8817 112.168 91.7357 111.817 91.5702 111.475C91.4046 111.132 91.2193 110.801 91.0158 110.48C90.8109 110.158 90.5892 109.851 90.3492 109.555C90.1093 109.26 89.8538 108.979 89.5816 108.714C89.3079 108.448 89.0217 108.199 88.7199 107.966C88.4182 107.735 88.1053 107.52 87.7783 107.324C87.4527 107.128 87.1159 106.952 86.7693 106.794C86.4226 106.637 86.0676 106.501 85.7055 106.385C85.3435 106.27 84.9744 106.174 84.6011 106.101C84.2278 106.028 83.8517 105.976 83.4714 105.947C83.0925 105.917 82.7122 105.91 82.3319 105.924C81.9515 105.94 81.5726 105.975 81.1965 106.034C80.8204 106.093 80.45 106.171 80.0823 106.274C79.716 106.375 79.3553 106.497 79.0031 106.64C78.6509 106.783 78.307 106.946 77.973 107.128C77.639 107.312 77.3177 107.513 77.0075 107.733C76.6974 107.954 76.3999 108.191 76.1178 108.446C75.8343 108.7 75.5677 108.971 75.3165 109.256C75.0639 109.542 74.8309 109.841 74.6134 110.153C74.3973 110.466 74.1994 110.79 74.0198 111.125C73.8401 111.462 73.6816 111.806 73.5426 112.161C73.4037 112.515 73.2858 112.875 73.1876 113.243C73.0908 113.611 73.015 113.982 72.9616 114.36C72.9069 114.736 72.8746 115.115 72.8648 115.495C72.855 115.876 72.8676 116.254 72.9013 116.633C72.935 117.012 72.9911 117.388 73.0683 117.76C73.1469 118.132 73.2451 118.5 73.3658 118.861C74.1292 121.082 76.1725 123.058 78.0376 124.494L62.7859 131.317L43.9164 89.188C43.7578 88.8399 43.675 88.4751 43.6666 88.0919C43.6596 87.7102 43.7283 87.3425 43.8715 86.9875C44.0062 86.6325 44.2027 86.3167 44.4637 86.0402C44.7247 85.7638 45.0292 85.5491 45.3773 85.3947L46.5673 84.8558L50.9696 98.5694C51.1338 98.8852 51.3373 99.1742 51.5787 99.4353C51.8201 99.6963 52.0923 99.9208 52.3955 100.107C52.6972 100.296 53.02 100.44 53.361 100.541C53.702 100.642 54.0514 100.695 54.4065 100.702C54.4065 100.702 57.9107 100.77 59.3491 98.0979V98.053C59.9118 97.0678 60.2964 96.0167 60.4998 94.901C60.7047 93.784 60.7174 92.6655 60.5391 91.5442C60.2023 89.39 59.2817 83.7556 58.9 81.4891C59.7982 80.991 60.6219 80.3931 61.3741 79.6943C62.1277 78.9954 62.7845 78.2179 63.3473 77.3591L86.1462 67.1468C86.1462 67.1468 86.7749 66.7876 87.2703 66.8999C87.5916 67.0626 87.8232 67.3096 87.9663 67.6408L95.0196 83.7556C95.0912 83.9352 95.1894 84.098 95.3129 84.2467C95.4364 84.3941 95.5795 84.5204 95.7437 84.6228C95.9065 84.7253 96.0819 84.8011 96.2686 84.8474C96.4566 84.8951 96.6461 84.9133 96.8384 84.9007C97.0306 84.8881 97.2173 84.8474 97.3969 84.7786C97.5765 84.7098 97.7421 84.6172 97.8951 84.4993C98.0466 84.3815 98.1786 84.2439 98.2894 84.0868C98.4003 83.9296 98.4859 83.7584 98.5462 83.5759C98.6192 83.2995 98.7104 83.0272 98.8171 82.7606C98.9251 82.4954 99.0486 82.2371 99.1876 81.9859C99.3265 81.7347 99.4795 81.492 99.6479 81.2604C99.8163 81.0274 99.9987 80.8071 100.194 80.5966C100.389 80.3861 100.597 80.1882 100.817 80.0044C101.036 79.8192 101.266 79.6479 101.507 79.4922C101.747 79.335 101.996 79.1933 102.254 79.067C102.512 78.9407 102.776 78.8298 103.048 78.7358C103.319 78.6417 103.596 78.5646 103.876 78.5042C104.157 78.4439 104.44 78.4004 104.725 78.3751C105.012 78.3498 105.298 78.3414 105.585 78.3498C105.872 78.3597 106.158 78.3863 106.442 78.4298C106.725 78.4733 107.006 78.5351 107.281 78.6137C107.557 78.6909 107.828 78.7863 108.093 78.8971C108.357 79.008 108.614 79.1357 108.864 79.2775C109.114 79.4206 109.352 79.5778 109.582 79.749C109.812 79.9202 110.031 80.1054 110.239 80.3047C110.445 80.5026 110.64 80.7131 110.823 80.9348C111.004 81.158 111.171 81.3895 111.325 81.6323C111.478 81.8751 111.616 82.1263 111.738 82.3859C111.861 82.6455 111.967 82.9107 112.058 83.183C112.148 83.4552 112.221 83.7331 112.277 84.0138C112.333 84.2959 112.372 84.5793 112.393 84.8656C112.416 85.1519 112.42 85.4382 112.406 85.7245C112.392 86.0108 112.361 86.2956 112.313 86.5791C112.265 86.8612 112.199 87.1405 112.117 87.4155C112.035 87.6892 111.936 87.9586 111.821 88.2211C111.706 88.4849 111.575 88.7389 111.429 88.9859C111.283 89.2329 111.122 89.47 110.946 89.6974C110.771 89.9247 110.583 90.1408 110.381 90.3443C110.179 90.5492 109.965 90.7401 109.741 90.9183C109.516 91.0965 109.281 91.2607 109.036 91.4095C107.081 92.5097 103.667 92.2403 102.297 92.0831C101.933 92.041 101.583 92.0929 101.246 92.2375C100.909 92.3806 100.632 92.5995 100.41 92.8914C100.41 92.9139 99.7587 93.6548 100.185 94.9333L106.857 109.792C106.98 110.076 107.021 110.37 106.98 110.676C106.941 110.982 106.825 111.256 106.632 111.499ZM146.121 113.9C146.005 114.307 145.832 114.688 145.605 115.045V115.09C145.605 115.09 144.931 116.189 144.144 117.401L143.875 117.828H117.033L116.808 117.603C115.941 116.68 115.257 115.634 114.759 114.469C114.261 113.305 113.979 112.089 113.91 110.825L133.362 102.722C132.935 103.485 132.531 104.294 132.15 105.101L134.598 106.246C135.092 105.19 135.631 104.159 136.193 103.171C136.768 102.182 137.502 101.328 138.395 100.613C139.041 100.081 139.745 99.6388 140.505 99.2879L141.495 98.8838L141.337 97.8284C141.315 97.806 141.246 97.3134 141.111 96.5724C140.707 94.1474 139.854 88.8961 139.517 86.8303C139.391 86.0234 139.401 85.2179 139.548 84.4137C139.694 83.6096 139.968 82.8518 140.37 82.1403C140.514 81.934 140.678 81.7488 140.864 81.5818C141.051 81.4162 141.255 81.2744 141.476 81.158C141.697 81.0401 141.928 80.9503 142.171 80.8885C142.412 80.8282 142.659 80.7959 142.909 80.7931C143.605 80.8155 143.897 81.1748 144.009 81.3993L147.963 93.6998L148.795 96.2805L149.918 99.8044L146.121 113.9Z" fill="black"/>
</svg>
