<svg width="197" height="176" viewBox="0 0 197 176" fill="none" xmlns="http://www.w3.org/2000/svg">
<rect width="197" height="176" fill="white"/>
<path d="M73.1648 121.499C81.2763 123.554 90.6378 123.795 98.7493 121.377C101.371 120.652 100.871 115.815 101.12 113.76C101.62 109.652 101.994 105.541 102.619 101.431C102.993 98.7715 104.615 96.7163 106.488 94.7808C108.608 92.6059 110.73 90.3094 112.478 87.7699C113.726 86.199 116.971 83.0554 115.474 80.8786C114.849 79.9118 113.477 79.549 112.353 80.0333C105.24 83.0554 97.8754 85.2322 90.8866 88.4955C88.0162 89.8251 90.1382 94.1768 93.1339 92.7274C96.3785 91.2763 101.87 89.0995 106.612 87.2874C104.864 89.4623 102.744 91.2763 100.871 93.4512C97.2524 97.6832 97.127 104.09 96.5039 109.289C96.3785 110.014 96.0043 117.025 95.6301 117.025C92.2601 117.751 83.7724 118.959 74.2875 116.663C72.9159 116.3 71.5425 117.145 71.2917 118.355C70.9175 119.806 71.7913 121.136 73.1648 121.499Z" fill="black"/>
<path d="M154.039 93.3314C157.158 93.3314 170.263 88.7366 172.883 87.7698C175.256 86.9245 177.127 85.2321 178.001 83.0553C179 80.8785 178.875 78.3408 177.875 76.164C176.004 72.2967 171.386 70.2415 167.142 71.4496C160.528 73.3851 151.292 75.0775 150.044 75.1972C146.924 75.0775 120.466 68.3078 114.725 66.6154C111.73 65.7683 109.856 66.4938 107.486 67.7019C105.863 68.5491 85.1458 78.3408 83.5235 79.3076C82.4008 80.0332 82.0266 81.4844 82.7751 82.5709C83.5235 83.6593 85.0204 84.0221 86.145 83.2965C87.5166 82.4512 108.111 72.7792 109.733 71.9339C111.73 70.9671 112.104 70.8455 113.226 71.2083C115.973 72.0536 145.802 80.0332 150.169 80.0332C150.169 80.0332 150.169 80.0332 150.294 80.0332C151.292 80.0332 161.527 78.0996 168.641 76.0443C170.512 75.56 172.634 76.4071 173.383 78.0996C174.257 80.0332 173.383 82.5709 171.137 83.2965C162.524 86.3186 155.287 88.4953 154.039 88.4953C152.165 88.4953 141.309 87.407 138.813 87.407C137.688 87.407 122.711 99.7383 122.337 100.221C121.214 101.55 122.088 103.727 123.836 104.09C124.959 104.331 145.051 111.344 148.298 112.431C150.42 113.156 153.165 115.092 152.291 117.629C151.668 119.322 150.044 120.289 148.547 120.169C139.062 118.959 114.849 111.707 113.601 111.707C111.604 111.585 110.231 112.552 109.608 114.486C109.108 116.421 108.485 126.333 108.36 126.576C108.36 127.18 107.736 127.905 106.488 128.631C100.123 132.498 82.0266 133.465 75.0359 130.323C72.1655 128.994 70.0436 133.346 72.9159 134.675C76.4093 136.246 81.9012 136.972 87.5166 136.972C95.7535 136.972 104.615 135.401 109.359 132.498C112.478 130.565 113.352 128.388 113.477 126.817C113.975 124.883 114.1 117.751 114.351 116.541C115.723 116.904 138.062 123.554 147.924 124.883C151.791 125.366 155.535 123.069 157.034 119.2C158.905 114.003 154.787 109.53 150.044 107.959C146.676 106.871 131.324 101.431 129.203 100.705C132.696 97.8046 137.939 93.4511 139.561 92.243C141.807 92.243 151.917 93.2098 154.039 93.3314Z" fill="black"/>
<mask id="mask0_180_37" style="mask-type:luminance" maskUnits="userSpaceOnUse" x="19" y="90" width="46" height="6">
<path d="M19 90.0944H64.2836V95.3605H19V90.0944Z" fill="white"/>
</mask>
<g mask="url(#mask0_180_37)">
<path d="M21.4961 95.1436H61.309C62.6806 95.1436 63.8052 94.0571 63.8052 92.7275C63.8052 91.396 62.6806 90.3094 61.309 90.3094H21.4961C20.1227 90.3094 19 91.396 19 92.7275C19 94.0571 20.1227 95.1436 21.4961 95.1436Z" fill="black"/>
</g>
<path d="M76.1605 80.8785C76.1605 79.5489 75.0359 78.4624 73.6643 78.4624H33.9749C32.6034 78.4624 31.4788 79.5489 31.4788 80.8785C31.4788 82.21 32.6034 83.2966 33.9749 83.2966H73.7878C75.0359 83.1769 76.1605 82.21 76.1605 80.8785Z" fill="black"/>
<path d="M31.4788 104.694C31.4788 106.024 32.6034 107.112 33.9749 107.112H73.7878C75.1612 107.112 76.2839 106.024 76.2839 104.694C76.2839 103.364 75.1612 102.276 73.7878 102.276H33.9749C32.6034 102.276 31.4788 103.364 31.4788 104.694Z" fill="black"/>
<mask id="mask1_180_37" style="mask-type:luminance" maskUnits="userSpaceOnUse" x="102" y="39" width="55" height="27">
<path d="M102.308 39H156.136V65.6786H102.308V39Z" fill="white"/>
</mask>
<g mask="url(#mask1_180_37)">
<path d="M104.864 48.6029C103.493 48.6029 102.368 49.6894 102.368 51.0209C102.368 52.3505 103.493 53.437 104.864 53.437H128.578C128.703 55.1295 129.203 56.7022 130.076 58.1515H115.973C114.6 58.1515 113.477 59.2399 113.477 60.5695C113.477 61.8992 114.6 62.9875 115.973 62.9875H134.195C136.44 64.4387 139.062 65.4056 142.058 65.4056C149.546 65.4056 155.786 59.483 155.786 52.229C155.786 44.9749 149.669 39.0524 142.058 39.0524H117.222C115.848 39.0524 114.725 40.1408 114.725 41.4704C114.725 42.8 115.848 43.8884 117.222 43.8884H131.573C130.325 45.218 129.451 46.9104 128.952 48.6029H104.864ZM142.181 43.7668C146.924 43.7668 150.918 47.5145 150.918 52.1074C150.918 56.7022 147.05 60.4498 142.181 60.4498C137.44 60.4498 133.445 56.7022 133.445 52.1074C133.445 47.636 137.314 43.7668 142.181 43.7668Z" fill="black"/>
</g>
</svg>
